<svg width="16" height="16" viewBox="0 0 16 16" fill="none" xmlns="http://www.w3.org/2000/svg">
<g clip-path="url(#clip0_27321_341928)">
<path d="M8.04108 5C6.36153 5 5 6.36153 5 8.04108C5 9.72062 6.36153 11.0822 8.04108 11.0822C9.72062 11.0822 11.0822 9.72062 11.0822 8.04108C11.0822 6.36153 9.72062 5 8.04108 5Z" fill="white"/>
<path fill-rule="evenodd" clip-rule="evenodd" d="M11.3327 0H4.666C2.09333 0 0 2.094 0 4.66733V11.334C0 13.9067 2.094 16 4.66733 16H11.334C13.9067 16 16 13.906 16 11.3327V4.666C16 2.09333 13.906 0 11.3327 0ZM7.99998 12C5.79397 12 3.99997 10.206 3.99997 8C3.99997 5.794 5.79397 4 7.99998 4C10.206 4 12 5.794 12 8C12 10.206 10.206 12 7.99998 12ZM12.6667 3.9974C12.2987 3.9974 12 3.69873 12 3.33073C12 2.96273 12.2987 2.66406 12.6667 2.66406C13.0347 2.66406 13.3333 2.96273 13.3333 3.33073C13.3333 3.69873 13.0347 3.9974 12.6667 3.9974Z" fill="white"/>
</g>
<defs>
<clipPath id="clip0_27321_341928">
<rect width="16" height="16" fill="white"/>
</clipPath>
</defs>
</svg>
