<svg width="14" height="15" viewBox="0 0 14 15" fill="none" xmlns="http://www.w3.org/2000/svg">
<path d="M0.104143 14.0254C0.346998 13.7364 0.568516 13.4724 0.790348 13.2085C2.27289 11.4439 3.7548 9.67904 5.23923 7.91608C5.30324 7.83997 5.31139 7.79052 5.25303 7.70349C3.55525 5.17916 1.8606 2.65225 0.165641 0.125666C0.148698 0.100297 0.13552 0.073002 0.111046 0.0299717C0.165327 0.0299717 0.202665 0.0299717 0.240317 0.0299717C1.47969 0.0299717 2.71906 0.030935 3.95812 0.0274027C4.05225 0.0274027 4.10559 0.0588726 4.15736 0.135942C5.26715 1.79421 6.37945 3.45056 7.49144 5.10755C7.50242 5.12392 7.51434 5.13966 7.5567 5.19875C7.57992 5.15315 7.59215 5.11301 7.61663 5.08378C9.00347 3.43129 10.3919 1.78041 11.7778 0.12695C11.8365 0.0569459 11.8948 0.0257971 11.9861 0.0274027C12.3266 0.0328618 12.667 0.0296505 13.0413 0.0296505C11.3705 2.01868 9.71729 3.98683 8.06155 5.95788C9.86382 8.64374 11.6604 11.3213 13.4677 14.0151C13.4191 14.0193 13.3868 14.0248 13.3545 14.0248C12.1035 14.0251 10.8522 14.0241 9.60119 14.0273C9.51397 14.0273 9.46878 13.9933 9.42266 13.9243C8.25671 12.1838 7.08887 10.4449 5.92135 8.70572C5.89939 8.67328 5.8768 8.64117 5.84605 8.59686C5.7287 8.73462 5.61606 8.86563 5.50467 8.99794C4.12003 10.6466 2.73601 12.2959 1.34854 13.9422C1.31151 13.9862 1.23903 14.0206 1.18255 14.0216C0.833961 14.0286 0.485368 14.0251 0.103516 14.0251L0.104143 14.0254ZM1.71062 0.941636C1.74325 0.99141 1.75988 1.01806 1.77745 1.04375C2.41251 1.97404 3.04789 2.90433 3.68295 3.83462C5.78173 6.90872 7.88019 9.98282 9.9774 13.0582C10.0241 13.1269 10.0715 13.1597 10.1575 13.159C10.6827 13.1545 11.2083 13.1568 11.7339 13.1565C11.7671 13.1565 11.8004 13.152 11.8518 13.1484C11.7734 13.0328 11.7053 12.9317 11.6363 12.8308C10.1682 10.6806 8.69975 8.5307 7.23164 6.38047C6.01517 4.59857 4.7987 2.81634 3.5838 1.03316C3.53925 0.967647 3.49312 0.938425 3.41249 0.939709C3.08711 0.944847 2.76174 0.941636 2.43605 0.941636C2.20166 0.941636 1.96728 0.941636 1.70999 0.941636H1.71062Z" fill="white"/>
</svg>
