<svg xmlns="http://www.w3.org/2000/svg" id="Chicks_Logo" width="152.29" height="31.163" viewBox="0 0 152.29 31.163">
    <defs>
        <style>
            .cls-1{fill:#b2b3b8}
        </style>
    </defs>
    <g id="Group_3877" transform="translate(-34.915 -20.729)">
        <g id="Group_3879" transform="translate(223.269 -273.021)">
            <g id="Group_3878" transform="translate(-80.713 293.75)">
                <g id="Group_3928">
                    <path id="Rectangle_287" d="M0 0H8.855V1.373H0z" class="cls-1" transform="translate(3.777 14.783)"/>
                    <path id="Rectangle_288" d="M0 0H8.855V0.635H0z" class="cls-1" transform="translate(3.777 13.84)"/>
                    <path id="Path_3334" d="M468.273 297.634a.532.532 0 0 0-.212 1.019l-2.968 5.539h-.661l.876-7.74a.608.608 0 1 0-.14-.014l-2.332 7.7h-.652l-1.032-8.891a.757.757 0 1 0-.206 0l-.908 8.89h-.652l-2.408-7.727a.6.6 0 1 0-.209.039.615.615 0 0 0 .126-.013l.844 7.855h-.669l-3.324-5.652a.529.529 0 1 0-.231.054.509.509 0 0 0 .08-.008l3.166 8.488h8.855l2.578-8.488a.521.521 0 0 0 .079.008.532.532 0 0 0 0-1.064z" class="cls-1" transform="translate(-452.982 -293.75)"/>
                </g>
            </g>
        </g>
        <g id="Group_3881" transform="translate(35.915 38.821)">
            <path id="Path_3324" d="M-184.283 393.354a6.466 6.466 0 0 1 2.3.346 8.281 8.281 0 0 1 1.6.808q.423.266.646.062a1.66 1.66 0 0 0 .307-.968h.487q-.043.675-.064 1.625t-.021 2.531h-.487q-.148-.781-.286-1.279a3.235 3.235 0 0 0-.36-.852 3.223 3.223 0 0 0-.6-.693 3.539 3.539 0 0 0-1.5-.924 6.159 6.159 0 0 0-1.884-.284 3.9 3.9 0 0 0-1.905.453 3.95 3.95 0 0 0-1.387 1.287 6.4 6.4 0 0 0-.857 1.971 9.836 9.836 0 0 0-.3 2.486 9.262 9.262 0 0 0 .317 2.513 5.847 5.847 0 0 0 .921 1.936 4.151 4.151 0 0 0 1.461 1.243 4.171 4.171 0 0 0 1.916.435 5.988 5.988 0 0 0 1.8-.293 3.291 3.291 0 0 0 1.482-.9 2.8 2.8 0 0 0 .815-1.2 10.014 10.014 0 0 0 .37-1.82h.487q0 1.634.021 2.637t.064 1.7h-.487a1.75 1.75 0 0 0-.286-.959q-.2-.2-.667.053a11.757 11.757 0 0 1-1.662.808 6.219 6.219 0 0 1-2.254.346 8.265 8.265 0 0 1-3.662-.764 5.675 5.675 0 0 1-2.434-2.2 6.578 6.578 0 0 1-.868-3.463 6.605 6.605 0 0 1 .9-3.48 6.257 6.257 0 0 1 2.466-2.327 7.583 7.583 0 0 1 3.611-.834z" class="cls-1" transform="translate(190.269 -393.354)"/>
            <path id="Path_3325" d="M-98.578 407.437v-.354a4.523 4.523 0 0 0 1.033-.142.657.657 0 0 0 .456-.425 3.1 3.1 0 0 0 .111-.957v-8.786a3.081 3.081 0 0 0-.111-.965.685.685 0 0 0-.466-.425 3.826 3.826 0 0 0-1.023-.133v-.354q.465.018 1.2.035t1.59.018q.77 0 1.509-.018t1.225-.035v.354a3.7 3.7 0 0 0-1.013.133.713.713 0 0 0-.466.425 2.833 2.833 0 0 0-.122.965v8.786a2.847 2.847 0 0 0 .122.957.685.685 0 0 0 .466.425 4.43 4.43 0 0 0 1.013.142v.354q-.486-.035-1.225-.044t-1.509-.009q-.851 0-1.59.009t-1.2.044zm3.017-6.129v-.354h8v.354zm5.488 6.129v-.354a4.524 4.524 0 0 0 1.033-.142.657.657 0 0 0 .456-.425 3.1 3.1 0 0 0 .111-.957v-8.786a3.081 3.081 0 0 0-.111-.965.685.685 0 0 0-.466-.425 3.827 3.827 0 0 0-1.023-.133v-.354q.506.018 1.266.035t1.509.018q.851 0 1.579-.018t1.175-.035v.354a3.7 3.7 0 0 0-1.013.133.713.713 0 0 0-.466.425 2.833 2.833 0 0 0-.122.965v8.786a2.847 2.847 0 0 0 .122.957.685.685 0 0 0 .466.425 4.428 4.428 0 0 0 1.013.142v.354q-.446-.035-1.175-.044t-1.579-.009q-.749 0-1.509.009t-1.265.044z" class="cls-1" transform="translate(113.581 -394.631)"/>
            <path id="Path_3326" d="M9.551 394.895v.354a3.927 3.927 0 0 0-1.044.133.728.728 0 0 0-.481.425 2.753 2.753 0 0 0-.125.965v8.786a2.766 2.766 0 0 0 .125.957.7.7 0 0 0 .481.425 4.7 4.7 0 0 0 1.044.142v.354q-.5-.035-1.264-.044t-1.556-.009q-.877 0-1.64.009t-1.243.044v-.354a4.8 4.8 0 0 0 1.065-.142.67.67 0 0 0 .47-.425 3.006 3.006 0 0 0 .115-.957v-8.786a2.992 2.992 0 0 0-.115-.965.7.7 0 0 0-.48-.425 4.062 4.062 0 0 0-1.055-.133v-.354q.48.018 1.243.035t1.64.018q.794 0 1.556-.018t1.264-.035z" class="cls-1" transform="translate(27.92 -394.631)"/>
            <path id="Path_3327" d="M66.723 393.354a5.757 5.757 0 0 1 2.161.346 7.627 7.627 0 0 1 1.5.808q.4.266.608.062a1.728 1.728 0 0 0 .289-.968h.458q-.04.675-.06 1.625t-.02 2.531H71.2q-.14-.781-.269-1.279a3.347 3.347 0 0 0-.339-.852 3.175 3.175 0 0 0-.568-.693 3.3 3.3 0 0 0-1.414-.924 5.482 5.482 0 0 0-1.773-.284 3.5 3.5 0 0 0-1.793.453 3.815 3.815 0 0 0-1.3 1.287 6.613 6.613 0 0 0-.807 1.971 10.423 10.423 0 0 0-.279 2.486 9.811 9.811 0 0 0 .3 2.513 6.012 6.012 0 0 0 .867 1.936 3.979 3.979 0 0 0 1.374 1.243 3.735 3.735 0 0 0 1.8.435 5.331 5.331 0 0 0 1.693-.293 3.072 3.072 0 0 0 1.394-.9 2.818 2.818 0 0 0 .767-1.2 10.582 10.582 0 0 0 .348-1.82h.458q0 1.634.02 2.637t.06 1.7h-.458a1.828 1.828 0 0 0-.269-.959q-.189-.2-.627.053a10.8 10.8 0 0 1-1.564.808 5.539 5.539 0 0 1-2.121.346 7.39 7.39 0 0 1-3.446-.764 5.471 5.471 0 0 1-2.291-2.2 7.663 7.663 0 0 1 .03-6.943 6.055 6.055 0 0 1 2.32-2.327 6.793 6.793 0 0 1 3.41-.834z" class="cls-1" transform="translate(-19.589 -393.354)"/>
            <path id="Path_3328" d="M158.438 394.895v.354a3.787 3.787 0 0 0-1.025.133.719.719 0 0 0-.472.425 2.8 2.8 0 0 0-.123.965v8.786a2.815 2.815 0 0 0 .123.957.69.69 0 0 0 .472.425 4.534 4.534 0 0 0 1.025.142v.354q-.492-.035-1.24-.044t-1.527-.009q-.861 0-1.609.009t-1.22.044v-.354a4.632 4.632 0 0 0 1.045-.142.662.662 0 0 0 .461-.425 3.06 3.06 0 0 0 .113-.957v-8.786a3.046 3.046 0 0 0-.113-.965.691.691 0 0 0-.471-.425 3.917 3.917 0 0 0-1.035-.133v-.354q.471.018 1.22.035t1.609.018q.779 0 1.527-.018t1.24-.035zm6.724 0v.354a4.354 4.354 0 0 0-1.3.4 4.461 4.461 0 0 0-1.3 1.019l-3.936 4.251.7-1.081 4.92 6.165a2.918 2.918 0 0 0 .707.673 3.372 3.372 0 0 0 .974.407v.354q-.554-.035-1.333-.044t-1.374-.009q-.369 0-.912.009t-1.363.044v-.354a1.611 1.611 0 0 0 .933-.212q.174-.177-.154-.585l-2.973-3.986a5.2 5.2 0 0 0-.656-.753 1.442 1.442 0 0 0-.594-.337 3.651 3.651 0 0 0-.759-.1v-.372a3.387 3.387 0 0 0 1.486-.337 4.722 4.722 0 0 0 1.179-.868l1.7-1.86a4.328 4.328 0 0 0 .923-1.3.7.7 0 0 0-.1-.824 1.786 1.786 0 0 0-1.148-.3v-.354l1.281.035q.646.018 1.3.018 1.143 0 1.799-.053z" class="cls-1" transform="translate(-97.077 -394.631)"/>
            <path id="Path_3329" d="M250.861 393.574a4.308 4.308 0 0 1 1.537.213 5.947 5.947 0 0 1 .93.461q.228.125.37.186a.683.683 0 0 0 .275.062q.3 0 .418-.781h.437q-.019.319-.048.754t-.038 1.145q-.01.71-.009 1.864h-.433a5.089 5.089 0 0 0-.408-1.687 3.272 3.272 0 0 0-1.025-1.332 2.749 2.749 0 0 0-1.718-.515 2.387 2.387 0 0 0-1.6.542 1.785 1.785 0 0 0-.636 1.429 2.025 2.025 0 0 0 .418 1.3 4.428 4.428 0 0 0 1.148.977q.73.453 1.661 1 .949.569 1.708 1.128a4.764 4.764 0 0 1 1.2 1.234 2.943 2.943 0 0 1 .437 1.634 3.046 3.046 0 0 1-.579 1.909 3.472 3.472 0 0 1-1.547 1.128 5.872 5.872 0 0 1-2.126.373 5.406 5.406 0 0 1-1.689-.213 7.37 7.37 0 0 1-1.063-.444 1.432 1.432 0 0 0-.645-.249q-.3 0-.418.781h-.437q.038-.39.047-.914t.019-1.376q.009-.852.009-2.148h.437a7.439 7.439 0 0 0 .427 2.06 3.389 3.389 0 0 0 1.082 1.536 3.05 3.05 0 0 0 1.945.577 2.787 2.787 0 0 0 1.689-.542 1.96 1.96 0 0 0 .74-1.7 2.315 2.315 0 0 0-.807-1.8 12.483 12.483 0 0 0-2.116-1.465q-.892-.532-1.67-1.065a4.485 4.485 0 0 1-1.243-1.243 3.007 3.007 0 0 1-.465-1.687 2.8 2.8 0 0 1 .541-1.776 3.237 3.237 0 0 1 1.4-1.03 5.042 5.042 0 0 1 1.845-.326z" class="cls-1" transform="translate(-173.97 -393.536)"/>
            <path id="Path_3330" d="M374.908 393.354a5.04 5.04 0 0 1 2.031.346 8.087 8.087 0 0 1 1.424.808.759.759 0 0 0 .38.178q.36 0 .474-1.083h.437q-.038.675-.057 1.625t-.019 2.531h-.437a11.9 11.9 0 0 0-.351-1.581 2.834 2.834 0 0 0-.75-1.243 3.432 3.432 0 0 0-1.338-.888 4.615 4.615 0 0 0-1.68-.32 3.343 3.343 0 0 0-1.746.453 3.822 3.822 0 0 0-1.281 1.287 6.647 6.647 0 0 0-.8 1.962 10.447 10.447 0 0 0-.275 2.477 8.192 8.192 0 0 0 1.053 4.68 3.641 3.641 0 0 0 3.179 1.483 3.126 3.126 0 0 0 1.053-.16 4.082 4.082 0 0 0 .712-.319 1.127 1.127 0 0 0 .418-.417 1.3 1.3 0 0 0 .095-.542v-1.723a3.31 3.31 0 0 0-.142-1.128.833.833 0 0 0-.56-.5 4.558 4.558 0 0 0-1.215-.151v-.355q.361.018.854.027l1.034.018q.541.009.978.009.683 0 1.243-.018t.92-.036v.355a.963.963 0 0 0-.759.284 2.715 2.715 0 0 0-.171 1.243v3.516h-.38a2.508 2.508 0 0 0-.142-.657q-.124-.355-.37-.355a.783.783 0 0 0-.275.053 3.315 3.315 0 0 0-.484.266 6.792 6.792 0 0 1-1.386.684 4.845 4.845 0 0 1-1.632.257 6.4 6.4 0 0 1-4.745-1.678 6.316 6.316 0 0 1-1.671-4.662 7.329 7.329 0 0 1 .826-3.569 5.9 5.9 0 0 1 2.259-2.335 6.478 6.478 0 0 1 3.296-.822z" class="cls-1" transform="translate(-277.349 -393.354)"/>
            <path id="Path_3331" d="M471.6 393.354a8.208 8.208 0 0 1 3.633.764 5.671 5.671 0 0 1 2.432 2.193 6.6 6.6 0 0 1 .863 3.472 6.7 6.7 0 0 1-.885 3.48 6.131 6.131 0 0 1-2.464 2.327 7.59 7.59 0 0 1-3.6.835 8.186 8.186 0 0 1-3.643-.764 5.655 5.655 0 0 1-2.422-2.2 7.293 7.293 0 0 1 .032-6.943 6.238 6.238 0 0 1 2.454-2.329 7.512 7.512 0 0 1 3.6-.835zm-.084.32a3.464 3.464 0 0 0-2.275.8 5.1 5.1 0 0 0-1.5 2.2 9.222 9.222 0 0 0-.526 3.25 8.367 8.367 0 0 0 .589 3.276 5.064 5.064 0 0 0 1.6 2.149 3.674 3.674 0 0 0 2.253.755 3.424 3.424 0 0 0 2.264-.8 5.222 5.222 0 0 0 1.5-2.211 9.077 9.077 0 0 0 .537-3.241 8.22 8.22 0 0 0-.6-3.285 5.191 5.191 0 0 0-1.6-2.14 3.634 3.634 0 0 0-2.242-.753z" class="cls-1" transform="translate(-357.18 -393.354)"/>
            <path id="Path_3332" d="M569.04 394.895v.354a3.823 3.823 0 0 0-1.031.133.71.71 0 0 0-.47.425 2.863 2.863 0 0 0-.12.965v8.857a2.79 2.79 0 0 0 .11.9.627.627 0 0 0 .44.4 3.552 3.552 0 0 0 .951.1h1.3a3.777 3.777 0 0 0 1.841-.381 2.469 2.469 0 0 0 1.041-1.16 6.976 6.976 0 0 0 .52-1.984h.46a14.694 14.694 0 0 0-.06 1.488q0 .355.03 1.036t.11 1.408q-1.02-.035-2.3-.044t-2.281-.009h-1.651q-1.031 0-2.2.009t-2.191.044v-.354a4.421 4.421 0 0 0 1.021-.142.652.652 0 0 0 .45-.425 3.124 3.124 0 0 0 .11-.957v-8.786a3.109 3.109 0 0 0-.11-.965.68.68 0 0 0-.46-.425 3.736 3.736 0 0 0-1.01-.133v-.354q.46.018 1.191.035t1.571.018q.76 0 1.511-.018t1.227-.035z" class="cls-1" transform="translate(-438.334 -394.631)"/>
            <path id="Path_3333" d="M652.231 394.895q3.652 0 5.429 1.585a5.772 5.772 0 0 1 1.777 4.544 6.419 6.419 0 0 1-.869 3.375 5.793 5.793 0 0 1-2.517 2.241 9.12 9.12 0 0 1-4 .8q-.435 0-1.293-.027t-1.51-.027q-.75 0-1.471.009t-1.175.044v-.354a4.306 4.306 0 0 0 1.007-.142.647.647 0 0 0 .444-.425 3.154 3.154 0 0 0 .109-.957v-8.786a3.14 3.14 0 0 0-.109-.965.674.674 0 0 0-.454-.425 3.641 3.641 0 0 0-1-.133v-.354l1.175.044q.721.027 1.431.009t1.589-.036q.885-.015 1.437-.02zm-.336.319a1.65 1.65 0 0 0-1.185.3 1.9 1.9 0 0 0-.276 1.222v8.857a1.847 1.847 0 0 0 .286 1.222 1.69 1.69 0 0 0 1.194.3 5.786 5.786 0 0 0 3.1-.7 3.749 3.749 0 0 0 1.559-2.046 10.332 10.332 0 0 0 .454-3.277 7.1 7.1 0 0 0-1.145-4.429q-1.144-1.449-3.982-1.449z" class="cls-1" transform="translate(-508.147 -394.631)"/>
        </g>
    </g>
</svg>
