<svg width="18" height="14" viewBox="0 0 18 14" fill="none" xmlns="http://www.w3.org/2000/svg">
<path d="M15.2378 1.24737C14.0905 0.718836 12.8602 0.329432 11.5739 0.106404C11.5505 0.1021 11.5271 0.112857 11.515 0.134371C11.3568 0.416919 11.1815 0.785527 11.0588 1.07525C9.6753 0.867287 8.29889 0.867287 6.94374 1.07525C6.82099 0.779087 6.63936 0.416919 6.48043 0.134371C6.46836 0.113575 6.44496 0.102818 6.42154 0.106404C5.13593 0.328719 3.90567 0.718123 2.7577 1.24737C2.74776 1.25168 2.73924 1.25885 2.73359 1.26817C0.400044 4.76853 -0.239213 8.18285 0.0743851 11.5548C0.075804 11.5713 0.0850274 11.5871 0.0977985 11.5971C1.63741 12.7324 3.12878 13.4215 4.59246 13.8784C4.61588 13.8855 4.6407 13.8769 4.65561 13.8576C5.00184 13.3828 5.31048 12.8823 5.57511 12.3559C5.59072 12.325 5.57582 12.2885 5.5439 12.2763C5.05435 12.0898 4.5882 11.8625 4.1398 11.6043C4.10433 11.5835 4.10149 11.5326 4.13412 11.5082C4.22848 11.4372 4.32286 11.3633 4.41297 11.2888C4.42927 11.2751 4.45198 11.2723 4.47115 11.2809C7.41696 12.6313 10.6062 12.6313 13.5172 11.2809C13.5364 11.2716 13.5591 11.2744 13.5761 11.288C13.6662 11.3626 13.7606 11.4372 13.8557 11.5082C13.8883 11.5326 13.8862 11.5835 13.8507 11.6043C13.4023 11.8675 12.9361 12.0898 12.4459 12.2756C12.414 12.2878 12.3998 12.325 12.4154 12.3559C12.6857 12.8815 12.9943 13.3821 13.3342 13.8568C13.3484 13.8769 13.3739 13.8855 13.3973 13.8784C14.8681 13.4215 16.3595 12.7324 17.8991 11.5971C17.9126 11.5871 17.9211 11.572 17.9225 11.5555C18.2978 7.65716 17.2939 4.27084 15.2612 1.26888C15.2562 1.25885 15.2477 1.25168 15.2378 1.24737ZM6.01502 9.50165C5.12812 9.50165 4.39735 8.68412 4.39735 7.68012C4.39735 6.67612 5.11395 5.85859 6.01502 5.85859C6.92315 5.85859 7.64686 6.68329 7.63266 7.68012C7.63266 8.68412 6.91606 9.50165 6.01502 9.50165ZM11.9961 9.50165C11.1092 9.50165 10.3784 8.68412 10.3784 7.68012C10.3784 6.67612 11.095 5.85859 11.9961 5.85859C12.9042 5.85859 13.6279 6.68329 13.6137 7.68012C13.6137 8.68412 12.9042 9.50165 11.9961 9.50165Z" fill="white"/>
</svg>
